v 0.0 1.0 0.0
v 0.0 -1.0 0.0
v -4.371139E-8 1.0 1.0
v -4.371139E-8 -1.0 1.0
v -0.9510566 1.0 0.3090168
v -0.9510566 -1.0 0.3090168
v -0.58778507 1.0 -0.8090171
v -0.58778507 -1.0 -0.8090171
v 0.5877855 1.0 -0.8090168
v 0.5877855 -1.0 -0.8090168
v 0.9510564 1.0 0.30901727
v 0.9510564 -1.0 0.30901727
vt 0.75 0.75
vt 0.25 0.75
vt 0.75 1.0
vt 0.24999999 1.0
vt 0.5122359 0.8272542
vt 0.01223585 0.8272542
vt 0.60305375 0.5477457
vt 0.10305373 0.5477457
vt 0.8969464 0.5477458
vt 0.39694637 0.5477458
vt 0.9877641 0.8272543
vt 0.48776412 0.8272543
vt 0.4 0.5
vt 0.4 0.0
vt 0.2 0.5
vt 0.2 0.0
vt 0.0 0.5
vt 0.0 0.0
vt 1.0 0.5
vt 1.0 0.0
vt 0.8 0.5
vt 0.8 0.0
vt 0.6 0.5
vt 0.6 0.0
vn 0.0 1.0 0.0
vn 0.0 -1.0 0.0
vn -4.371139E-8 0.0 1.0
vn -0.9510566 0.0 0.3090168
vn -0.58778507 0.0 -0.8090171
vn 0.5877855 0.0 -0.8090168
vn 0.95105654 0.0 0.3090173
f 5/5/1 3/3/1 1/1/1
f 2/2/2 4/4/2 6/6/2
f 7/7/1 5/5/1 1/1/1
f 2/2/2 6/6/2 8/8/2
f 9/9/1 7/7/1 1/1/1
f 2/2/2 8/8/2 10/10/2
f 11/11/1 9/9/1 1/1/1
f 2/2/2 10/10/2 12/12/2
f 3/3/1 11/11/1 1/1/1
f 2/2/2 12/12/2 4/4/2
f 5/15/4 4/14/3 3/13/3
f 6/16/4 4/14/3 5/15/4
f 7/17/5 6/16/4 5/15/4
f 8/18/5 6/16/4 7/17/5
f 9/21/6 8/20/5 7/19/5
f 10/22/6 8/20/5 9/21/6
f 11/23/7 10/22/6 9/21/6
f 12/24/7 10/22/6 11/23/7
f 3/13/3 12/24/7 11/23/7
f 4/14/3 12/24/7 3/13/3
