v 0.0 1.0 0.0
v 0.0 -1.0 0.0
v -4.371139E-8 1.0 1.0
v -4.371139E-8 -1.0 1.0
v -0.38268352 1.0 0.9238795
v -0.38268352 -1.0 0.9238795
v -0.70710677 1.0 0.70710677
v -0.70710677 -1.0 0.70710677
v -0.9238795 1.0 0.3826835
v -0.9238795 -1.0 0.3826835
v -1.0 1.0 1.509958E-7
v -1.0 -1.0 1.509958E-7
v -0.9238796 1.0 -0.38268322
v -0.9238796 -1.0 -0.38268322
v -0.707107 1.0 -0.7071066
v -0.707107 -1.0 -0.7071066
v -0.38268358 1.0 -0.9238795
v -0.38268358 -1.0 -0.9238795
v 1.1924881E-8 1.0 -1.0
v 1.1924881E-8 -1.0 -1.0
v 0.3826836 1.0 -0.92387944
v 0.3826836 -1.0 -0.92387944
v 0.707107 1.0 -0.70710653
v 0.707107 -1.0 -0.70710653
v 0.92387974 1.0 -0.38268298
v 0.92387974 -1.0 -0.38268298
v 1.0 1.0 6.5168274E-7
v 1.0 -1.0 6.5168274E-7
v 0.9238792 1.0 0.38268417
v 0.9238792 -1.0 0.38268417
v 0.7071061 1.0 0.7071075
v 0.7071061 -1.0 0.7071075
v 0.38268238 1.0 0.92388
v 0.38268238 -1.0 0.92388
vt 0.75 0.75
vt 0.25 0.75
vt 0.75 1.0
vt 0.24999999 1.0
vt 0.6543291 0.9809699
vt 0.15432912 0.9809699
vt 0.5732233 0.9267767
vt 0.07322331 0.9267767
vt 0.5190301 0.8456709
vt 0.019030124 0.8456709
vt 0.5 0.75000006
vt 0.0 0.75000006
vt 0.5190301 0.6543292
vt 0.019030094 0.6543292
vt 0.57322323 0.57322335
vt 0.07322325 0.57322335
vt 0.6543291 0.5190301
vt 0.1543291 0.5190301
vt 0.75 0.5
vt 0.25 0.5
vt 0.8456709 0.51903015
vt 0.3456709 0.51903015
vt 0.92677677 0.57322335
vt 0.42677677 0.57322335
vt 0.9809699 0.65432924
vt 0.48096994 0.65432924
vt 1.0 0.7500002
vt 0.5 0.7500002
vt 0.9809698 0.84567106
vt 0.4809698 0.84567106
vt 0.9267765 0.9267769
vt 0.42677653 0.9267769
vt 0.8456706 0.98097
vt 0.34567058 0.98097
vt 0.5 0.5
vt 0.5 0.0
vt 0.4375 0.5
vt 0.4375 0.0
vt 0.375 0.5
vt 0.375 0.0
vt 0.3125 0.5
vt 0.3125 0.0
vt 0.25 0.5
vt 0.25 0.0
vt 0.1875 0.5
vt 0.1875 0.0
vt 0.125 0.5
vt 0.125 0.0
vt 0.0625 0.5
vt 0.0625 0.0
vt 0.0 0.5
vt 0.0 0.0
vt 1.0 0.5
vt 1.0 0.0
vt 0.9375 0.5
vt 0.9375 0.0
vt 0.875 0.5
vt 0.875 0.0
vt 0.8125 0.5
vt 0.8125 0.0
vt 0.75 0.5
vt 0.75 0.0
vt 0.6875 0.5
vt 0.6875 0.0
vt 0.625 0.5
vt 0.625 0.0
vt 0.5625 0.5
vt 0.5625 0.0
vn 0.0 1.0 0.0
vn 0.0 -1.0 0.0
vn -4.371139E-8 0.0 1.0
vn -0.38268352 0.0 0.9238795
vn -0.7071068 0.0 0.7071068
vn -0.9238795 0.0 0.3826835
vn -1.0 0.0 1.509958E-7
vn -0.9238796 0.0 -0.38268322
vn -0.707107 0.0 -0.7071066
vn -0.38268358 0.0 -0.9238795
vn 1.1924881E-8 0.0 -1.0
vn 0.3826836 0.0 -0.92387944
vn 0.70710707 0.0 -0.7071066
vn 0.92387974 0.0 -0.38268298
vn 1.0 0.0 6.5168274E-7
vn 0.9238793 0.0 0.38268423
vn 0.7071061 0.0 0.7071075
vn 0.38268238 0.0 0.92388
f 5/5/1 3/3/1 1/1/1
f 2/2/2 4/4/2 6/6/2
f 7/7/1 5/5/1 1/1/1
f 2/2/2 6/6/2 8/8/2
f 9/9/1 7/7/1 1/1/1
f 2/2/2 8/8/2 10/10/2
f 11/11/1 9/9/1 1/1/1
f 2/2/2 10/10/2 12/12/2
f 13/13/1 11/11/1 1/1/1
f 2/2/2 12/12/2 14/14/2
f 15/15/1 13/13/1 1/1/1
f 2/2/2 14/14/2 16/16/2
f 17/17/1 15/15/1 1/1/1
f 2/2/2 16/16/2 18/18/2
f 19/19/1 17/17/1 1/1/1
f 2/2/2 18/18/2 20/20/2
f 21/21/1 19/19/1 1/1/1
f 2/2/2 20/20/2 22/22/2
f 23/23/1 21/21/1 1/1/1
f 2/2/2 22/22/2 24/24/2
f 25/25/1 23/23/1 1/1/1
f 2/2/2 24/24/2 26/26/2
f 27/27/1 25/25/1 1/1/1
f 2/2/2 26/26/2 28/28/2
f 29/29/1 27/27/1 1/1/1
f 2/2/2 28/28/2 30/30/2
f 31/31/1 29/29/1 1/1/1
f 2/2/2 30/30/2 32/32/2
f 33/33/1 31/31/1 1/1/1
f 2/2/2 32/32/2 34/34/2
f 3/3/1 33/33/1 1/1/1
f 2/2/2 34/34/2 4/4/2
f 5/37/4 4/36/3 3/35/3
f 6/38/4 4/36/3 5/37/4
f 7/39/5 6/38/4 5/37/4
f 8/40/5 6/38/4 7/39/5
f 9/41/6 8/40/5 7/39/5
f 10/42/6 8/40/5 9/41/6
f 11/43/7 10/42/6 9/41/6
f 12/44/7 10/42/6 11/43/7
f 13/45/8 12/44/7 11/43/7
f 14/46/8 12/44/7 13/45/8
f 15/47/9 14/46/8 13/45/8
f 16/48/9 14/46/8 15/47/9
f 17/49/10 16/48/9 15/47/9
f 18/50/10 16/48/9 17/49/10
f 19/51/11 18/50/10 17/49/10
f 20/52/11 18/50/10 19/51/11
f 21/55/12 20/54/11 19/53/11
f 22/56/12 20/54/11 21/55/12
f 23/57/13 22/56/12 21/55/12
f 24/58/13 22/56/12 23/57/13
f 25/59/14 24/58/13 23/57/13
f 26/60/14 24/58/13 25/59/14
f 27/61/15 26/60/14 25/59/14
f 28/62/15 26/60/14 27/61/15
f 29/63/16 28/62/15 27/61/15
f 30/64/16 28/62/15 29/63/16
f 31/65/17 30/64/16 29/63/16
f 32/66/17 30/64/16 31/65/17
f 33/67/18 32/66/17 31/65/17
f 34/68/18 32/66/17 33/67/18
f 3/35/3 34/68/18 33/67/18
f 4/36/3 34/68/18 3/35/3
