v 0.0 1.0 0.0
v 0.0 -1.0 0.0
v -4.371139E-8 1.0 1.0
v -4.371139E-8 -1.0 1.0
v -0.07845917 1.0 0.9969173
v -0.07845917 -1.0 0.9969173
v -0.15643457 1.0 0.9876883
v -0.15643457 -1.0 0.9876883
v -0.2334455 1.0 0.9723699
v -0.2334455 -1.0 0.9723699
v -0.30901715 1.0 0.9510565
v -0.30901715 -1.0 0.9510565
v -0.38268363 1.0 0.92387944
v -0.38268363 -1.0 0.92387944
v -0.4539906 1.0 0.89100647
v -0.4539906 -1.0 0.89100647
v -0.52249867 1.0 0.8526401
v -0.52249867 -1.0 0.8526401
v -0.5877854 1.0 0.8090169
v -0.5877854 -1.0 0.8090169
v -0.6494482 1.0 0.76040584
v -0.6494482 -1.0 0.76040584
v -0.70710695 1.0 0.7071066
v -0.70710695 -1.0 0.7071066
v -0.76040614 1.0 0.64944786
v -0.76040614 -1.0 0.64944786
v -0.8090172 1.0 0.587785
v -0.8090172 -1.0 0.587785
v -0.85264033 1.0 0.52249825
v -0.85264033 -1.0 0.52249825
v -0.8910067 1.0 0.45399016
v -0.8910067 -1.0 0.45399016
v -0.9238797 1.0 0.38268307
v -0.9238797 -1.0 0.38268307
v -0.95105666 1.0 0.3090166
v -0.95105666 -1.0 0.3090166
v -0.97237 1.0 0.23344491
v -0.97237 -1.0 0.23344491
v -0.9876884 1.0 0.15643397
v -0.9876884 -1.0 0.15643397
v -0.99691737 1.0 0.07845856
v -0.99691737 -1.0 0.07845856
v -1.0 1.0 -5.6425995E-7
v -1.0 -1.0 -5.6425995E-7
v -0.9969173 1.0 -0.07845969
v -0.9969173 -1.0 -0.07845969
v -0.98768824 1.0 -0.15643509
v -0.98768824 -1.0 -0.15643509
v -0.9723698 1.0 -0.233446
v -0.9723698 -1.0 -0.233446
v -0.9510563 1.0 -0.30901766
v -0.9510563 -1.0 -0.30901766
v -0.92387927 1.0 -0.3826841
v -0.92387927 -1.0 -0.3826841
v -0.8910062 1.0 -0.45399117
v -0.8910062 -1.0 -0.45399117
v -0.85263973 1.0 -0.52249926
v -0.85263973 -1.0 -0.52249926
v -0.8090165 1.0 -0.5877859
v -0.8090165 -1.0 -0.5877859
v -0.7604054 1.0 -0.6494487
v -0.7604054 -1.0 -0.6494487
v -0.7071062 1.0 -0.7071074
v -0.7071062 -1.0 -0.7071074
v -0.64944756 1.0 -0.76040643
v -0.64944756 -1.0 -0.76040643
v -0.5877847 1.0 -0.8090174
v -0.5877847 -1.0 -0.8090174
v -0.52249795 1.0 -0.85264057
v -0.52249795 -1.0 -0.85264057
v -0.4539898 1.0 -0.8910069
v -0.4539898 -1.0 -0.8910069
v -0.38268268 1.0 -0.92387986
v -0.38268268 -1.0 -0.92387986
v -0.3090162 1.0 -0.9510568
v -0.3090162 -1.0 -0.9510568
v -0.23344451 1.0 -0.97237015
v -0.23344451 -1.0 -0.97237015
v -0.15643357 1.0 -0.9876885
v -0.15643357 -1.0 -0.9876885
v -0.07845817 1.0 -0.9969174
v -0.07845817 -1.0 -0.9969174
v 9.655992E-7 1.0 -1.0
v 9.655992E-7 -1.0 -1.0
v 0.07846009 1.0 -0.99691725
v 0.07846009 -1.0 -0.99691725
v 0.15643547 1.0 -0.9876882
v 0.15643547 -1.0 -0.9876882
v 0.23344639 1.0 -0.9723697
v 0.23344639 -1.0 -0.9723697
v 0.30901805 1.0 -0.9510562
v 0.30901805 -1.0 -0.9510562
v 0.38268447 1.0 -0.9238791
v 0.38268447 -1.0 -0.9238791
v 0.45399153 1.0 -0.891006
v 0.45399153 -1.0 -0.891006
v 0.52249956 1.0 -0.85263956
v 0.52249956 -1.0 -0.85263956
v 0.58778626 1.0 -0.8090163
v 0.58778626 -1.0 -0.8090163
v 0.649449 1.0 -0.7604051
v 0.649449 -1.0 -0.7604051
v 0.70710766 1.0 -0.7071059
v 0.70710766 -1.0 -0.7071059
v 0.7604068 1.0 -0.649447
v 0.7604068 -1.0 -0.649447
v 0.8090178 1.0 -0.5877842
v 0.8090178 -1.0 -0.5877842
v 0.85264087 1.0 -0.5224974
v 0.85264087 -1.0 -0.5224974
v 0.8910072 1.0 -0.45398924
v 0.8910072 -1.0 -0.45398924
v 0.9238801 1.0 -0.38268209
v 0.9238801 -1.0 -0.38268209
v 0.95105696 1.0 -0.3090156
v 0.95105696 -1.0 -0.3090156
v 0.97237027 1.0 -0.2334439
v 0.97237027 -1.0 -0.2334439
v 0.9876886 1.0 -0.15643294
v 0.9876886 -1.0 -0.15643294
v 0.9969175 1.0 -0.07845753
v 0.9969175 -1.0 -0.07845753
v 1.0 1.0 1.605357E-6
v 1.0 -1.0 1.605357E-6
v 0.9969172 1.0 0.07846073
v 0.9969172 -1.0 0.07846073
v 0.98768806 1.0 0.15643612
v 0.98768806 -1.0 0.15643612
v 0.97236955 1.0 0.23344702
v 0.97236955 -1.0 0.23344702
v 0.951056 1.0 0.30901864
v 0.951056 -1.0 0.30901864
v 0.92387885 1.0 0.38268507
v 0.92387885 -1.0 0.38268507
v 0.8910057 1.0 0.4539921
v 0.8910057 -1.0 0.4539921
v 0.8526392 1.0 0.5225001
v 0.8526392 -1.0 0.5225001
v 0.8090159 1.0 0.58778673
v 0.8090159 -1.0 0.58778673
v 0.76040477 1.0 0.64944947
v 0.76040477 -1.0 0.64944947
v 0.7071054 1.0 0.70710814
v 0.7071054 -1.0 0.70710814
v 0.64944655 1.0 0.7604072
v 0.64944655 -1.0 0.7604072
v 0.58778363 1.0 0.80901814
v 0.58778363 -1.0 0.80901814
v 0.5224968 1.0 0.8526412
v 0.5224968 -1.0 0.8526412
v 0.45398867 1.0 0.8910075
v 0.45398867 -1.0 0.8910075
v 0.38268152 1.0 0.92388034
v 0.38268152 -1.0 0.92388034
v 0.30901498 1.0 0.9510572
v 0.30901498 -1.0 0.9510572
v 0.23344328 1.0 0.97237045
v 0.23344328 -1.0 0.97237045
v 0.15643232 1.0 0.98768866
v 0.15643232 -1.0 0.98768866
v 0.078456886 1.0 0.9969175
v 0.078456886 -1.0 0.9969175
vt 0.75 0.75
vt 0.25 0.75
vt 0.75 1.0
vt 0.24999999 1.0
vt 0.7303852 0.9992293
vt 0.23038521 0.9992293
vt 0.71089137 0.9969221
vt 0.21089137 0.9969221
vt 0.69163865 0.9930925
vt 0.19163862 0.9930925
vt 0.6727457 0.9877641
vt 0.1727457 0.9877641
vt 0.65432906 0.98096985
vt 0.15432909 0.98096985
vt 0.6365023 0.9727516
vt 0.13650236 0.9727516
vt 0.61937535 0.96316004
vt 0.11937533 0.96316004
vt 0.6030536 0.95225424
vt 0.103053644 0.95225424
vt 0.58763796 0.94010144
vt 0.087637946 0.94010144
vt 0.57322323 0.92677665
vt 0.07322326 0.92677665
vt 0.5598985 0.912362
vt 0.059898466 0.912362
vt 0.5477457 0.89694625
vt 0.047745705 0.89694625
vt 0.5368399 0.88062453
vt 0.036839917 0.88062453
vt 0.5272483 0.86349756
vt 0.027248323 0.86349756
vt 0.5190301 0.84567076
vt 0.01903008 0.84567076
vt 0.5122358 0.8272542
vt 0.012235835 0.8272542
vt 0.50690746 0.80836123
vt 0.006907493 0.80836123
vt 0.50307786 0.7891085
vt 0.0030778944 0.7891085
vt 0.5007707 0.76961464
vt 7.7065825E-4 0.76961464
vt 0.5 0.7499999
vt 0.0 0.7499999
vt 0.5007707 0.73038507
vt 7.7067316E-4 0.73038507
vt 0.5030779 0.71089125
vt 0.0030779392 0.71089125
vt 0.5069076 0.69163847
vt 0.0069075525 0.69163847
vt 0.51223594 0.6727456
vt 0.012235925 0.6727456
vt 0.5190302 0.65432894
vt 0.019030184 0.65432894
vt 0.52724844 0.6365022
vt 0.027248457 0.6365022
vt 0.5368401 0.61937517
vt 0.036840066 0.61937517
vt 0.5477459 0.6030535
vt 0.04774587 0.6030535
vt 0.5598986 0.58763784
vt 0.059898645 0.58763784
vt 0.5732235 0.5732231
vt 0.07322346 0.5732231
vt 0.58763814 0.5598984
vt 0.08763811 0.5598984
vt 0.6030538 0.54774565
vt 0.10305382 0.54774565
vt 0.6193755 0.53683984
vt 0.11937551 0.53683984
vt 0.63650256 0.52724826
vt 0.13650255 0.52724826
vt 0.6543293 0.51903003
vt 0.15432933 0.51903003
vt 0.67274594 0.5122358
vt 0.17274594 0.5122358
vt 0.6916389 0.50690746
vt 0.19163887 0.50690746
vt 0.7108916 0.50307786
vt 0.2108916 0.50307786
vt 0.7303855 0.5007706
vt 0.23038545 0.5007706
vt 0.75000024 0.5
vt 0.25000024 0.5
vt 0.769615 0.5007707
vt 0.26961502 0.5007707
vt 0.7891089 0.503078
vt 0.28910887 0.503078
vt 0.8083616 0.5069076
vt 0.3083616 0.5069076
vt 0.82725453 0.51223594
vt 0.3272545 0.51223594
vt 0.8456711 0.5190302
vt 0.34567112 0.5190302
vt 0.86349785 0.5272485
vt 0.36349788 0.5272485
vt 0.8806249 0.5368401
vt 0.3806249 0.5368401
vt 0.89694655 0.54774594
vt 0.39694655 0.54774594
vt 0.9123622 0.55989873
vt 0.41236225 0.55989873
vt 0.9267769 0.57322353
vt 0.42677692 0.57322353
vt 0.9401017 0.58763826
vt 0.44010168 0.58763826
vt 0.9522544 0.6030539
vt 0.45225444 0.6030539
vt 0.9631602 0.61937565
vt 0.46316022 0.61937565
vt 0.9727518 0.6365027
vt 0.4727518 0.6365027
vt 0.98097 0.6543295
vt 0.48097003 0.6543295
vt 0.98776424 0.6727461
vt 0.48776424 0.6727461
vt 0.99309254 0.691639
vt 0.49309257 0.691639
vt 0.99692214 0.7108918
vt 0.49692214 0.7108918
vt 0.9992294 0.7303856
vt 0.49922937 0.7303856
vt 1.0 0.7500004
vt 0.5 0.7500004
vt 0.9992293 0.7696152
vt 0.4992293 0.7696152
vt 0.996922 0.78910905
vt 0.49692202 0.78910905
vt 0.9930924 0.80836177
vt 0.4930924 0.80836177
vt 0.987764 0.82725465
vt 0.487764 0.82725465
vt 0.9809697 0.8456713
vt 0.48096973 0.8456713
vt 0.97275144 0.86349803
vt 0.47275144 0.86349803
vt 0.9631598 0.880625
vt 0.4631598 0.880625
vt 0.952254 0.89694667
vt 0.452254 0.89694667
vt 0.9401012 0.91236234
vt 0.4401012 0.91236234
vt 0.92677635 0.926777
vt 0.42677635 0.926777
vt 0.9123616 0.9401018
vt 0.41236162 0.9401018
vt 0.8969459 0.95225453
vt 0.3969459 0.95225453
vt 0.8806242 0.9631603
vt 0.3806242 0.9631603
vt 0.86349714 0.97275186
vt 0.36349717 0.97275186
vt 0.8456704 0.9809701
vt 0.34567037 0.9809701
vt 0.82725376 0.9877643
vt 0.32725376 0.9877643
vt 0.8083608 0.9930926
vt 0.30836082 0.9930926
vt 0.7891081 0.99692214
vt 0.28910807 0.99692214
vt 0.7696142 0.9992294
vt 0.26961422 0.9992294
vt 0.4999998 0.5
vt 0.4999998 0.0
vt 0.4874998 0.5
vt 0.4874998 0.0
vt 0.47499982 0.5
vt 0.47499982 0.0
vt 0.46249983 0.5
vt 0.46249983 0.0
vt 0.44999984 0.5
vt 0.44999984 0.0
vt 0.43749985 0.5
vt 0.43749985 0.0
vt 0.42499986 0.5
vt 0.42499986 0.0
vt 0.41249987 0.5
vt 0.41249987 0.0
vt 0.3999999 0.5
vt 0.3999999 0.0
vt 0.3874999 0.5
vt 0.3874999 0.0
vt 0.3749999 0.5
vt 0.3749999 0.0
vt 0.36249992 0.5
vt 0.36249992 0.0
vt 0.34999993 0.5
vt 0.34999993 0.0
vt 0.33749995 0.5
vt 0.33749995 0.0
vt 0.32499996 0.5
vt 0.32499996 0.0
vt 0.31249997 0.5
vt 0.31249997 0.0
vt 0.29999998 0.5
vt 0.29999998 0.0
vt 0.2875 0.5
vt 0.2875 0.0
vt 0.275 0.5
vt 0.275 0.0
vt 0.26250002 0.5
vt 0.26250002 0.0
vt 0.25000003 0.5
vt 0.25000003 0.0
vt 0.23750004 0.5
vt 0.23750004 0.0
vt 0.22500004 0.5
vt 0.22500004 0.0
vt 0.21250004 0.5
vt 0.21250004 0.0
vt 0.20000003 0.5
vt 0.20000003 0.0
vt 0.18750003 0.5
vt 0.18750003 0.0
vt 0.17500003 0.5
vt 0.17500003 0.0
vt 0.16250002 0.5
vt 0.16250002 0.0
vt 0.15000002 0.5
vt 0.15000002 0.0
vt 0.13750002 0.5
vt 0.13750002 0.0
vt 0.12500001 0.5
vt 0.12500001 0.0
vt 0.11250001 0.5
vt 0.11250001 0.0
vt 0.10000001 0.5
vt 0.10000001 0.0
vt 0.087500006 0.5
vt 0.087500006 0.0
vt 0.075 0.5
vt 0.075 0.0
vt 0.0625 0.5
vt 0.0625 0.0
vt 0.05 0.5
vt 0.05 0.0
vt 0.0375 0.5
vt 0.0375 0.0
vt 0.025 0.5
vt 0.025 0.0
vt 0.0125 0.5
vt 0.0125 0.0
vt 0.0 0.5
vt 0.0 0.0
vt 0.99999976 0.5
vt 0.99999976 0.0
vt 0.98749983 0.5
vt 0.98749983 0.0
vt 0.9749998 0.5
vt 0.9749998 0.0
vt 0.96249986 0.5
vt 0.96249986 0.0
vt 0.9499998 0.5
vt 0.9499998 0.0
vt 0.9374999 0.5
vt 0.9374999 0.0
vt 0.92499983 0.5
vt 0.92499983 0.0
vt 0.9124999 0.5
vt 0.9124999 0.0
vt 0.89999986 0.5
vt 0.89999986 0.0
vt 0.8874999 0.5
vt 0.8874999 0.0
vt 0.8749999 0.5
vt 0.8749999 0.0
vt 0.86249995 0.5
vt 0.86249995 0.0
vt 0.8499999 0.5
vt 0.8499999 0.0
vt 0.8375 0.5
vt 0.8375 0.0
vt 0.8249999 0.5
vt 0.8249999 0.0
vt 0.8125 0.5
vt 0.8125 0.0
vt 0.79999995 0.5
vt 0.79999995 0.0
vt 0.7875 0.5
vt 0.7875 0.0
vt 0.775 0.5
vt 0.775 0.0
vt 0.76250005 0.5
vt 0.76250005 0.0
vt 0.75 0.5
vt 0.75 0.0
vt 0.7375 0.5
vt 0.7375 0.0
vt 0.725 0.5
vt 0.725 0.0
vt 0.71250004 0.5
vt 0.71250004 0.0
vt 0.70000005 0.5
vt 0.70000005 0.0
vt 0.6875 0.5
vt 0.6875 0.0
vt 0.675 0.5
vt 0.675 0.0
vt 0.6625 0.5
vt 0.6625 0.0
vt 0.65 0.5
vt 0.65 0.0
vt 0.6375 0.5
vt 0.6375 0.0
vt 0.625 0.5
vt 0.625 0.0
vt 0.6125 0.5
vt 0.6125 0.0
vt 0.6 0.5
vt 0.6 0.0
vt 0.5875 0.5
vt 0.5875 0.0
vt 0.575 0.5
vt 0.575 0.0
vt 0.5625 0.5
vt 0.5625 0.0
vt 0.55 0.5
vt 0.55 0.0
vt 0.53749996 0.5
vt 0.53749996 0.0
vt 0.525 0.5
vt 0.525 0.0
vt 0.5125 0.5
vt 0.5125 0.0
vn 0.0 1.0 0.0
vn 0.0 -1.0 0.0
vn -4.371139E-8 0.0 1.0
vn -0.07845918 0.0 0.9969174
vn -0.15643458 0.0 0.9876884
vn -0.2334455 0.0 0.9723699
vn -0.30901715 0.0 0.9510565
vn -0.38268363 0.0 0.92387944
vn -0.4539906 0.0 0.89100647
vn -0.52249867 0.0 0.8526401
vn -0.5877854 0.0 0.8090169
vn -0.6494482 0.0 0.76040584
vn -0.70710695 0.0 0.7071066
vn -0.76040614 0.0 0.64944786
vn -0.8090172 0.0 0.587785
vn -0.85264045 0.0 0.5224983
vn -0.8910067 0.0 0.45399016
vn -0.9238797 0.0 0.38268307
vn -0.95105666 0.0 0.3090166
vn -0.97237 0.0 0.23344491
vn -0.9876884 0.0 0.15643397
vn -0.9969175 0.0 0.07845857
vn -1.0 0.0 -5.6425995E-7
vn -0.9969173 0.0 -0.07845969
vn -0.98768824 0.0 -0.15643509
vn -0.9723698 0.0 -0.233446
vn -0.9510563 0.0 -0.30901766
vn -0.92387927 0.0 -0.3826841
vn -0.8910062 0.0 -0.45399117
vn -0.85263973 0.0 -0.52249926
vn -0.8090165 0.0 -0.5877859
vn -0.7604054 0.0 -0.6494487
vn -0.7071062 0.0 -0.7071074
vn -0.64944756 0.0 -0.76040643
vn -0.5877847 0.0 -0.8090174
vn -0.52249795 0.0 -0.85264057
vn -0.4539898 0.0 -0.8910069
vn -0.38268268 0.0 -0.92387986
vn -0.3090162 0.0 -0.9510568
vn -0.23344451 0.0 -0.97237015
vn -0.15643357 0.0 -0.9876885
vn -0.07845817 0.0 -0.9969174
vn 9.655992E-7 0.0 -1.0
vn 0.0784601 0.0 -0.99691737
vn 0.15643547 0.0 -0.9876882
vn 0.23344639 0.0 -0.9723697
vn 0.30901805 0.0 -0.9510562
vn 0.38268447 0.0 -0.9238791
vn 0.45399153 0.0 -0.891006
vn 0.52249956 0.0 -0.85263956
vn 0.58778626 0.0 -0.8090163
vn 0.64944905 0.0 -0.76040524
vn 0.70710766 0.0 -0.7071059
vn 0.7604069 0.0 -0.6494471
vn 0.8090178 0.0 -0.5877842
vn 0.85264087 0.0 -0.5224974
vn 0.8910072 0.0 -0.45398924
vn 0.9238801 0.0 -0.38268209
vn 0.95105696 0.0 -0.3090156
vn 0.97237027 0.0 -0.2334439
vn 0.9876886 0.0 -0.15643294
vn 0.9969175 0.0 -0.07845753
vn 1.0 0.0 1.605357E-6
vn 0.9969173 0.0 0.07846074
vn 0.9876882 0.0 0.15643613
vn 0.97236955 0.0 0.23344702
vn 0.951056 0.0 0.30901864
vn 0.92387897 0.0 0.38268512
vn 0.8910058 0.0 0.45399216
vn 0.8526392 0.0 0.5225001
vn 0.8090159 0.0 0.58778673
vn 0.76040477 0.0 0.64944947
vn 0.70710546 0.0 0.7071082
vn 0.6494466 0.0 0.7604073
vn 0.5877837 0.0 0.80901825
vn 0.5224968 0.0 0.8526412
vn 0.45398867 0.0 0.8910075
vn 0.38268152 0.0 0.92388034
vn 0.30901498 0.0 0.9510572
vn 0.23344328 0.0 0.97237045
vn 0.15643233 0.0 0.9876888
vn 0.07845689 0.0 0.9969176
f 5/5/1 3/3/1 1/1/1
f 2/2/2 4/4/2 6/6/2
f 7/7/1 5/5/1 1/1/1
f 2/2/2 6/6/2 8/8/2
f 9/9/1 7/7/1 1/1/1
f 2/2/2 8/8/2 10/10/2
f 11/11/1 9/9/1 1/1/1
f 2/2/2 10/10/2 12/12/2
f 13/13/1 11/11/1 1/1/1
f 2/2/2 12/12/2 14/14/2
f 15/15/1 13/13/1 1/1/1
f 2/2/2 14/14/2 16/16/2
f 17/17/1 15/15/1 1/1/1
f 2/2/2 16/16/2 18/18/2
f 19/19/1 17/17/1 1/1/1
f 2/2/2 18/18/2 20/20/2
f 21/21/1 19/19/1 1/1/1
f 2/2/2 20/20/2 22/22/2
f 23/23/1 21/21/1 1/1/1
f 2/2/2 22/22/2 24/24/2
f 25/25/1 23/23/1 1/1/1
f 2/2/2 24/24/2 26/26/2
f 27/27/1 25/25/1 1/1/1
f 2/2/2 26/26/2 28/28/2
f 29/29/1 27/27/1 1/1/1
f 2/2/2 28/28/2 30/30/2
f 31/31/1 29/29/1 1/1/1
f 2/2/2 30/30/2 32/32/2
f 33/33/1 31/31/1 1/1/1
f 2/2/2 32/32/2 34/34/2
f 35/35/1 33/33/1 1/1/1
f 2/2/2 34/34/2 36/36/2
f 37/37/1 35/35/1 1/1/1
f 2/2/2 36/36/2 38/38/2
f 39/39/1 37/37/1 1/1/1
f 2/2/2 38/38/2 40/40/2
f 41/41/1 39/39/1 1/1/1
f 2/2/2 40/40/2 42/42/2
f 43/43/1 41/41/1 1/1/1
f 2/2/2 42/42/2 44/44/2
f 45/45/1 43/43/1 1/1/1
f 2/2/2 44/44/2 46/46/2
f 47/47/1 45/45/1 1/1/1
f 2/2/2 46/46/2 48/48/2
f 49/49/1 47/47/1 1/1/1
f 2/2/2 48/48/2 50/50/2
f 51/51/1 49/49/1 1/1/1
f 2/2/2 50/50/2 52/52/2
f 53/53/1 51/51/1 1/1/1
f 2/2/2 52/52/2 54/54/2
f 55/55/1 53/53/1 1/1/1
f 2/2/2 54/54/2 56/56/2
f 57/57/1 55/55/1 1/1/1
f 2/2/2 56/56/2 58/58/2
f 59/59/1 57/57/1 1/1/1
f 2/2/2 58/58/2 60/60/2
f 61/61/1 59/59/1 1/1/1
f 2/2/2 60/60/2 62/62/2
f 63/63/1 61/61/1 1/1/1
f 2/2/2 62/62/2 64/64/2
f 65/65/1 63/63/1 1/1/1
f 2/2/2 64/64/2 66/66/2
f 67/67/1 65/65/1 1/1/1
f 2/2/2 66/66/2 68/68/2
f 69/69/1 67/67/1 1/1/1
f 2/2/2 68/68/2 70/70/2
f 71/71/1 69/69/1 1/1/1
f 2/2/2 70/70/2 72/72/2
f 73/73/1 71/71/1 1/1/1
f 2/2/2 72/72/2 74/74/2
f 75/75/1 73/73/1 1/1/1
f 2/2/2 74/74/2 76/76/2
f 77/77/1 75/75/1 1/1/1
f 2/2/2 76/76/2 78/78/2
f 79/79/1 77/77/1 1/1/1
f 2/2/2 78/78/2 80/80/2
f 81/81/1 79/79/1 1/1/1
f 2/2/2 80/80/2 82/82/2
f 83/83/1 81/81/1 1/1/1
f 2/2/2 82/82/2 84/84/2
f 85/85/1 83/83/1 1/1/1
f 2/2/2 84/84/2 86/86/2
f 87/87/1 85/85/1 1/1/1
f 2/2/2 86/86/2 88/88/2
f 89/89/1 87/87/1 1/1/1
f 2/2/2 88/88/2 90/90/2
f 91/91/1 89/89/1 1/1/1
f 2/2/2 90/90/2 92/92/2
f 93/93/1 91/91/1 1/1/1
f 2/2/2 92/92/2 94/94/2
f 95/95/1 93/93/1 1/1/1
f 2/2/2 94/94/2 96/96/2
f 97/97/1 95/95/1 1/1/1
f 2/2/2 96/96/2 98/98/2
f 99/99/1 97/97/1 1/1/1
f 2/2/2 98/98/2 100/100/2
f 101/101/1 99/99/1 1/1/1
f 2/2/2 100/100/2 102/102/2
f 103/103/1 101/101/1 1/1/1
f 2/2/2 102/102/2 104/104/2
f 105/105/1 103/103/1 1/1/1
f 2/2/2 104/104/2 106/106/2
f 107/107/1 105/105/1 1/1/1
f 2/2/2 106/106/2 108/108/2
f 109/109/1 107/107/1 1/1/1
f 2/2/2 108/108/2 110/110/2
f 111/111/1 109/109/1 1/1/1
f 2/2/2 110/110/2 112/112/2
f 113/113/1 111/111/1 1/1/1
f 2/2/2 112/112/2 114/114/2
f 115/115/1 113/113/1 1/1/1
f 2/2/2 114/114/2 116/116/2
f 117/117/1 115/115/1 1/1/1
f 2/2/2 116/116/2 118/118/2
f 119/119/1 117/117/1 1/1/1
f 2/2/2 118/118/2 120/120/2
f 121/121/1 119/119/1 1/1/1
f 2/2/2 120/120/2 122/122/2
f 123/123/1 121/121/1 1/1/1
f 2/2/2 122/122/2 124/124/2
f 125/125/1 123/123/1 1/1/1
f 2/2/2 124/124/2 126/126/2
f 127/127/1 125/125/1 1/1/1
f 2/2/2 126/126/2 128/128/2
f 129/129/1 127/127/1 1/1/1
f 2/2/2 128/128/2 130/130/2
f 131/131/1 129/129/1 1/1/1
f 2/2/2 130/130/2 132/132/2
f 133/133/1 131/131/1 1/1/1
f 2/2/2 132/132/2 134/134/2
f 135/135/1 133/133/1 1/1/1
f 2/2/2 134/134/2 136/136/2
f 137/137/1 135/135/1 1/1/1
f 2/2/2 136/136/2 138/138/2
f 139/139/1 137/137/1 1/1/1
f 2/2/2 138/138/2 140/140/2
f 141/141/1 139/139/1 1/1/1
f 2/2/2 140/140/2 142/142/2
f 143/143/1 141/141/1 1/1/1
f 2/2/2 142/142/2 144/144/2
f 145/145/1 143/143/1 1/1/1
f 2/2/2 144/144/2 146/146/2
f 147/147/1 145/145/1 1/1/1
f 2/2/2 146/146/2 148/148/2
f 149/149/1 147/147/1 1/1/1
f 2/2/2 148/148/2 150/150/2
f 151/151/1 149/149/1 1/1/1
f 2/2/2 150/150/2 152/152/2
f 153/153/1 151/151/1 1/1/1
f 2/2/2 152/152/2 154/154/2
f 155/155/1 153/153/1 1/1/1
f 2/2/2 154/154/2 156/156/2
f 157/157/1 155/155/1 1/1/1
f 2/2/2 156/156/2 158/158/2
f 159/159/1 157/157/1 1/1/1
f 2/2/2 158/158/2 160/160/2
f 161/161/1 159/159/1 1/1/1
f 2/2/2 160/160/2 162/162/2
f 3/3/1 161/161/1 1/1/1
f 2/2/2 162/162/2 4/4/2
f 5/165/4 4/164/3 3/163/3
f 6/166/4 4/164/3 5/165/4
f 7/167/5 6/166/4 5/165/4
f 8/168/5 6/166/4 7/167/5
f 9/169/6 8/168/5 7/167/5
f 10/170/6 8/168/5 9/169/6
f 11/171/7 10/170/6 9/169/6
f 12/172/7 10/170/6 11/171/7
f 13/173/8 12/172/7 11/171/7
f 14/174/8 12/172/7 13/173/8
f 15/175/9 14/174/8 13/173/8
f 16/176/9 14/174/8 15/175/9
f 17/177/10 16/176/9 15/175/9
f 18/178/10 16/176/9 17/177/10
f 19/179/11 18/178/10 17/177/10
f 20/180/11 18/178/10 19/179/11
f 21/181/12 20/180/11 19/179/11
f 22/182/12 20/180/11 21/181/12
f 23/183/13 22/182/12 21/181/12
f 24/184/13 22/182/12 23/183/13
f 25/185/14 24/184/13 23/183/13
f 26/186/14 24/184/13 25/185/14
f 27/187/15 26/186/14 25/185/14
f 28/188/15 26/186/14 27/187/15
f 29/189/16 28/188/15 27/187/15
f 30/190/16 28/188/15 29/189/16
f 31/191/17 30/190/16 29/189/16
f 32/192/17 30/190/16 31/191/17
f 33/193/18 32/192/17 31/191/17
f 34/194/18 32/192/17 33/193/18
f 35/195/19 34/194/18 33/193/18
f 36/196/19 34/194/18 35/195/19
f 37/197/20 36/196/19 35/195/19
f 38/198/20 36/196/19 37/197/20
f 39/199/21 38/198/20 37/197/20
f 40/200/21 38/198/20 39/199/21
f 41/201/22 40/200/21 39/199/21
f 42/202/22 40/200/21 41/201/22
f 43/203/23 42/202/22 41/201/22
f 44/204/23 42/202/22 43/203/23
f 45/205/24 44/204/23 43/203/23
f 46/206/24 44/204/23 45/205/24
f 47/207/25 46/206/24 45/205/24
f 48/208/25 46/206/24 47/207/25
f 49/209/26 48/208/25 47/207/25
f 50/210/26 48/208/25 49/209/26
f 51/211/27 50/210/26 49/209/26
f 52/212/27 50/210/26 51/211/27
f 53/213/28 52/212/27 51/211/27
f 54/214/28 52/212/27 53/213/28
f 55/215/29 54/214/28 53/213/28
f 56/216/29 54/214/28 55/215/29
f 57/217/30 56/216/29 55/215/29
f 58/218/30 56/216/29 57/217/30
f 59/219/31 58/218/30 57/217/30
f 60/220/31 58/218/30 59/219/31
f 61/221/32 60/220/31 59/219/31
f 62/222/32 60/220/31 61/221/32
f 63/223/33 62/222/32 61/221/32
f 64/224/33 62/222/32 63/223/33
f 65/225/34 64/224/33 63/223/33
f 66/226/34 64/224/33 65/225/34
f 67/227/35 66/226/34 65/225/34
f 68/228/35 66/226/34 67/227/35
f 69/229/36 68/228/35 67/227/35
f 70/230/36 68/228/35 69/229/36
f 71/231/37 70/230/36 69/229/36
f 72/232/37 70/230/36 71/231/37
f 73/233/38 72/232/37 71/231/37
f 74/234/38 72/232/37 73/233/38
f 75/235/39 74/234/38 73/233/38
f 76/236/39 74/234/38 75/235/39
f 77/237/40 76/236/39 75/235/39
f 78/238/40 76/236/39 77/237/40
f 79/239/41 78/238/40 77/237/40
f 80/240/41 78/238/40 79/239/41
f 81/241/42 80/240/41 79/239/41
f 82/242/42 80/240/41 81/241/42
f 83/243/43 82/242/42 81/241/42
f 84/244/43 82/242/42 83/243/43
f 85/247/44 84/246/43 83/245/43
f 86/248/44 84/246/43 85/247/44
f 87/249/45 86/248/44 85/247/44
f 88/250/45 86/248/44 87/249/45
f 89/251/46 88/250/45 87/249/45
f 90/252/46 88/250/45 89/251/46
f 91/253/47 90/252/46 89/251/46
f 92/254/47 90/252/46 91/253/47
f 93/255/48 92/254/47 91/253/47
f 94/256/48 92/254/47 93/255/48
f 95/257/49 94/256/48 93/255/48
f 96/258/49 94/256/48 95/257/49
f 97/259/50 96/258/49 95/257/49
f 98/260/50 96/258/49 97/259/50
f 99/261/51 98/260/50 97/259/50
f 100/262/51 98/260/50 99/261/51
f 101/263/52 100/262/51 99/261/51
f 102/264/52 100/262/51 101/263/52
f 103/265/53 102/264/52 101/263/52
f 104/266/53 102/264/52 103/265/53
f 105/267/54 104/266/53 103/265/53
f 106/268/54 104/266/53 105/267/54
f 107/269/55 106/268/54 105/267/54
f 108/270/55 106/268/54 107/269/55
f 109/271/56 108/270/55 107/269/55
f 110/272/56 108/270/55 109/271/56
f 111/273/57 110/272/56 109/271/56
f 112/274/57 110/272/56 111/273/57
f 113/275/58 112/274/57 111/273/57
f 114/276/58 112/274/57 113/275/58
f 115/277/59 114/276/58 113/275/58
f 116/278/59 114/276/58 115/277/59
f 117/279/60 116/278/59 115/277/59
f 118/280/60 116/278/59 117/279/60
f 119/281/61 118/280/60 117/279/60
f 120/282/61 118/280/60 119/281/61
f 121/283/62 120/282/61 119/281/61
f 122/284/62 120/282/61 121/283/62
f 123/285/63 122/284/62 121/283/62
f 124/286/63 122/284/62 123/285/63
f 125/287/64 124/286/63 123/285/63
f 126/288/64 124/286/63 125/287/64
f 127/289/65 126/288/64 125/287/64
f 128/290/65 126/288/64 127/289/65
f 129/291/66 128/290/65 127/289/65
f 130/292/66 128/290/65 129/291/66
f 131/293/67 130/292/66 129/291/66
f 132/294/67 130/292/66 131/293/67
f 133/295/68 132/294/67 131/293/67
f 134/296/68 132/294/67 133/295/68
f 135/297/69 134/296/68 133/295/68
f 136/298/69 134/296/68 135/297/69
f 137/299/70 136/298/69 135/297/69
f 138/300/70 136/298/69 137/299/70
f 139/301/71 138/300/70 137/299/70
f 140/302/71 138/300/70 139/301/71
f 141/303/72 140/302/71 139/301/71
f 142/304/72 140/302/71 141/303/72
f 143/305/73 142/304/72 141/303/72
f 144/306/73 142/304/72 143/305/73
f 145/307/74 144/306/73 143/305/73
f 146/308/74 144/306/73 145/307/74
f 147/309/75 146/308/74 145/307/74
f 148/310/75 146/308/74 147/309/75
f 149/311/76 148/310/75 147/309/75
f 150/312/76 148/310/75 149/311/76
f 151/313/77 150/312/76 149/311/76
f 152/314/77 150/312/76 151/313/77
f 153/315/78 152/314/77 151/313/77
f 154/316/78 152/314/77 153/315/78
f 155/317/79 154/316/78 153/315/78
f 156/318/79 154/316/78 155/317/79
f 157/319/80 156/318/79 155/317/79
f 158/320/80 156/318/79 157/319/80
f 159/321/81 158/320/80 157/319/80
f 160/322/81 158/320/80 159/321/81
f 161/323/82 160/322/81 159/321/81
f 162/324/82 160/322/81 161/323/82
f 3/163/3 162/324/82 161/323/82
f 4/164/3 162/324/82 3/163/3
